<?xml version="1.0" encoding="utf-8"?>
<svg fill="none" width="800px" height="800px" version="1.1" xmlns="http://www.w3.org/2000/svg">
    <symbol id="play" viewBox="0 0 32 32">
        <path d="M5.92 24.096q0 1.088 0.928 1.728 0.512 0.288 1.088 0.288 0.448 0 0.896-0.224l16.16-8.064q0.48-0.256 0.8-0.736t0.288-1.088-0.288-1.056-0.8-0.736l-16.16-8.064q-0.448-0.224-0.896-0.224-0.544 0-1.088 0.288-0.928 0.608-0.928 1.728v16.16z"/>
    </symbol>

    <symbol id="pause" viewBox="0 0 32 32">
        <path d="M5.92 24.096q0 0.832 0.576 1.408t1.44 0.608h4.032q0.832 0 1.44-0.608t0.576-1.408v-16.16q0-0.832-0.576-1.44t-1.44-0.576h-4.032q-0.832 0-1.44 0.576t-0.576 1.44v16.16zM18.016 24.096q0 0.832 0.608 1.408t1.408 0.608h4.032q0.832 0 1.44-0.608t0.576-1.408v-16.16q0-0.832-0.576-1.44t-1.44-0.576h-4.032q-0.832 0-1.408 0.576t-0.608 1.44v16.16z"/>
    </symbol>

    <symbol id="replay" viewBox="0 0 29.963 29.963">
        <path d="M29.133,9.215c-0.775-0.428-1.751-0.146-2.178,0.63l-0.518,0.937 c-1.772-5.424-6.874-9.356-12.882-9.356C6.081,1.426,0,7.507,0,14.981s6.081,13.555,13.555,13.555 c0.886,0,1.604-0.718,1.604-1.603c0-0.885-0.718-1.603-1.604-1.603c-5.706,0-10.349-4.643-10.349-10.35S7.849,4.632,13.555,4.632 c4.525,0,8.372,2.924,9.775,6.978l-0.876-0.483c-0.775-0.428-1.751-0.147-2.178,0.629c-0.428,0.776-0.147,1.751,0.629,2.178 l3.169,1.748c0.261,0.531,0.801,0.901,1.434,0.901c0.16,0,0.311-0.031,0.456-0.074c0.009,0,0.016,0.003,0.025,0.003 c0.565,0,1.112-0.298,1.406-0.829l2.368-4.292C30.191,10.618,29.909,9.643,29.133,9.215z"/>
    </symbol>

    <symbol id="next" viewBox="0 -2 12 12">
        <g stroke="none" stroke-width="1" fill-rule="evenodd">
            <g transform="translate(-144.000000, -3805.000000)">
                <g transform="translate(56.000000, 160.000000)">
                    <path d="M99.684,3649.69353 L95.207,3652.82453 C94.571,3653.25353 94,3652.84553 94,3652.13153 L94,3650.14053 L89.78,3652.82453 C89.145,3653.25353 88,3652.84553 88,3652.13153 L88,3645.86853 C88,3645.15453 89.145,3644.74653 89.78,3645.17453 L94,3647.85953 L94,3645.86853 C94,3645.15453 94.571,3644.74653 95.207,3645.17453 L99.516,3648.30653 C100.03,3648.65353 100.198,3649.34653 99.684,3649.69353"/>
                </g>
            </g>
        </g>
    </symbol>

    <symbol id="volume_full" viewBox="0 0 16 16">
        <path d="M6 1H8V15H6L2 11H0V5H2L6 1Z"/>
        <path d="M14 8C14 5.79086 12.2091 4 10 4V2C13.3137 2 16 4.68629 16 8C16 11.3137 13.3137 14 10 14V12C12.2091 12 14 10.2091 14 8Z"/>
        <path d="M12 8C12 9.10457 11.1046 10 10 10V6C11.1046 6 12 6.89543 12 8Z"/>
    </symbol>

    <symbol id="volume_medium" viewBox="0 0 16 16">
        <path d="M8 1H6L2 5H0V11H2L6 15H8V1Z"/>
        <path d="M12 8C12 9.10457 11.1046 10 10 10V6C11.1046 6 12 6.89543 12 8Z"/>
    </symbol>

    <symbol id="volume_low" viewBox="0 0 16 16">
        <path d="M6 1H8V15H6L2 11H0V5H2L6 1Z" />
    </symbol>

    <symbol id="volume_muted" viewBox="0 0 16 16">
        <path d="M8 1H6L2 5H0V11H2L6 15H8V1Z"/>
        <path d="M9.29289 6.20711L11.0858 8L9.29289 9.79289L10.7071 11.2071L12.5 9.41421L14.2929 11.2071L15.7071 9.79289L13.9142 8L15.7071 6.20711L14.2929 4.79289L12.5 6.58579L10.7071 4.79289L9.29289 6.20711Z"/>
    </symbol>

    <symbol id="download" viewBox="0 0 24 24">
        <path fill-rule="evenodd" clip-rule="evenodd" d="M23 22C23 22.5523 22.5523 23 22 23H2C1.44772 23 1 22.5523 1 22C1 21.4477 1.44772 21 2 21H22C22.5523 21 23 21.4477 23 22Z"/>
        <path fill-rule="evenodd" clip-rule="evenodd" d="M13.3099 18.6881C12.5581 19.3396 11.4419 19.3396 10.6901 18.6881L5.87088 14.5114C4.47179 13.2988 5.32933 11 7.18074 11L9.00001 11V3C9.00001 1.89543 9.89544 1 11 1L13 1C14.1046 1 15 1.89543 15 3L15 11H16.8193C18.6707 11 19.5282 13.2988 18.1291 14.5114L13.3099 18.6881ZM11.3451 16.6091C11.7209 16.9348 12.2791 16.9348 12.6549 16.6091L16.8193 13H14.5C13.6716 13 13 12.3284 13 11.5V3L11 3V11.5C11 12.3284 10.3284 13 9.50001 13L7.18074 13L11.3451 16.6091Z"/>
    </symbol>

    <symbol id="subs" viewBox="0 0 32 32">
        <path d="M28 4.765h-24c-1.794 0.002-3.248 1.456-3.25 3.25v15.97c0.002 1.794 1.456 3.248 3.25 3.25h24c1.794-0.001 3.249-1.456 3.25-3.25v-15.97c-0.002-1.794-1.456-3.248-3.25-3.25h-0zM28.75 23.984c-0 0.414-0.336 0.75-0.75 0.75h-24c-0.414-0-0.75-0.336-0.75-0.75v-15.97c0.006-0.412 0.338-0.744 0.749-0.75h24.001c0.412 0.006 0.744 0.338 0.75 0.749v0.001zM15.413 17.266l-0.397-0.176c-0.119-0.054-0.258-0.085-0.404-0.085-0.409 0-0.76 0.245-0.916 0.596l-0.003 0.006c-0.295 0.685-0.769 1.247-1.363 1.64l-0.014 0.009c-0.569 0.389-1.272 0.621-2.030 0.621-0.018 0-0.035-0-0.053-0l0.003 0c-0.022 0-0.047 0.001-0.073 0.001-1.032 0-1.964-0.429-2.627-1.119l-0.001-0.001c-0.69-0.677-1.118-1.62-1.118-2.662 0-0.034 0-0.067 0.001-0.101l-0 0.005c-0.001-0.029-0.001-0.063-0.001-0.097 0-1.041 0.428-1.983 1.117-2.659l0.001-0.001c0.663-0.691 1.594-1.12 2.625-1.12 0.027 0 0.054 0 0.080 0.001l-0.004-0c0.016-0 0.034-0 0.053-0 0.756 0 1.458 0.231 2.039 0.627l-0.013-0.008c0.609 0.403 1.083 0.964 1.369 1.626l0.009 0.024c0.157 0.358 0.509 0.604 0.918 0.604 0.147 0 0.287-0.032 0.413-0.089l-0.006 0.003 0.397-0.177c0.353-0.16 0.593-0.508 0.593-0.914 0-0.147-0.032-0.286-0.088-0.411l0.003 0.006c-0.494-1.112-1.269-2.023-2.237-2.667l-0.023-0.014c-0.947-0.641-2.115-1.023-3.372-1.023-0.019 0-0.039 0-0.058 0l0.003-0c-0.031-0.001-0.067-0.001-0.103-0.001-1.696 0-3.228 0.7-4.324 1.827l-0.001 0.001c-1.122 1.108-1.817 2.647-1.817 4.348 0 0.040 0 0.079 0.001 0.119l-0-0.006c-0.001 0.033-0.001 0.072-0.001 0.111 0 1.702 0.695 3.242 1.817 4.351l0.001 0.001c1.098 1.128 2.631 1.827 4.327 1.827 0.036 0 0.072-0 0.107-0.001l-0.005 0c0.017 0 0.037 0 0.058 0 1.256 0 2.422-0.382 3.389-1.037l-0.021 0.014c0.991-0.659 1.767-1.57 2.245-2.642l0.016-0.039c0.054-0.119 0.086-0.258 0.086-0.405 0-0.406-0.242-0.755-0.589-0.911l-0.006-0.003zM22.236 12.125c0.016-0 0.034-0 0.052-0 0.756 0 1.459 0.231 2.040 0.627l-0.013-0.008c0.608 0.403 1.082 0.964 1.368 1.626l0.009 0.024c0.157 0.358 0.509 0.603 0.917 0.603 0.147 0 0.287-0.032 0.413-0.089l-0.006 0.003 0.396-0.177c0.353-0.159 0.593-0.508 0.593-0.913 0-0.146-0.032-0.285-0.088-0.411l0.003 0.006c-0.493-1.112-1.268-2.023-2.235-2.668l-0.023-0.014c-0.967-0.647-2.157-1.033-3.437-1.033-3.444 0-6.236 2.792-6.236 6.236 0 0.022 0 0.044 0 0.065l-0-0.003c-0.001 0.033-0.001 0.072-0.001 0.111 0 1.702 0.695 3.242 1.817 4.351l0.001 0.001c1.134 1.129 2.697 1.826 4.423 1.826 1.277 0 2.466-0.382 3.456-1.038l-0.023 0.015c0.99-0.659 1.765-1.57 2.242-2.642l0.016-0.039c0.054-0.119 0.086-0.258 0.086-0.405 0-0.405-0.241-0.754-0.587-0.911l-0.006-0.003-0.396-0.176c-0.119-0.054-0.259-0.086-0.406-0.086-0.409 0-0.761 0.245-0.916 0.597l-0.003 0.006c-0.295 0.685-0.768 1.246-1.361 1.64l-0.014 0.009c-0.588 0.389-1.31 0.621-2.085 0.621-1.054 0-2.008-0.428-2.698-1.119l-0-0c-0.69-0.677-1.118-1.619-1.118-2.662 0-0.034 0-0.068 0.001-0.101l-0 0.005c-0.001-0.029-0.001-0.063-0.001-0.097 0-1.042 0.428-1.983 1.118-2.658l0.001-0.001c0.663-0.691 1.594-1.12 2.625-1.12 0.027 0 0.053 0 0.080 0.001l-0.004-0z"/>
    </symbol>

    <symbol id="settings" viewBox="0 0 24 24">
        <path fill-rule="evenodd" d="M9.024 2.783A1 1 0 0 1 10 2h4a1 1 0 0 1 .976.783l.44 1.981c.4.19.781.41 1.14.66l1.938-.61a1 1 0 0 1 1.166.454l2 3.464a1 1 0 0 1-.19 1.237l-1.497 1.373a8.1 8.1 0 0 1 0 1.316l1.497 1.373a1 1 0 0 1 .19 1.237l-2 3.464a1 1 0 0 1-1.166.454l-1.937-.61c-.36.25-.741.47-1.14.66l-.44 1.98A1 1 0 0 1 14 22h-4a1 1 0 0 1-.976-.783l-.44-1.981c-.4-.19-.781-.41-1.14-.66l-1.938.61a1 1 0 0 1-1.166-.454l-2-3.464a1 1 0 0 1 .19-1.237l1.497-1.373a8.097 8.097 0 0 1 0-1.316L2.53 9.97a1 1 0 0 1-.19-1.237l2-3.464a1 1 0 0 1 1.166-.454l1.937.61c.36-.25.741-.47 1.14-.66l.44-1.98zM12 15a3 3 0 1 0 0-6 3 3 0 0 0 0 6z" clip-rule="evenodd"/>
    </symbol>

    <symbol id="fullscreen_enter" viewBox="0 0 24 24">
        <path d="M4 1.5C2.61929 1.5 1.5 2.61929 1.5 4V8.5C1.5 9.05228 1.94772 9.5 2.5 9.5H3.5C4.05228 9.5 4.5 9.05228 4.5 8.5V4.5H8.5C9.05228 4.5 9.5 4.05228 9.5 3.5V2.5C9.5 1.94772 9.05228 1.5 8.5 1.5H4Z"/>
        <path d="M20 1.5C21.3807 1.5 22.5 2.61929 22.5 4V8.5C22.5 9.05228 22.0523 9.5 21.5 9.5H20.5C19.9477 9.5 19.5 9.05228 19.5 8.5V4.5H15.5C14.9477 4.5 14.5 4.05228 14.5 3.5V2.5C14.5 1.94772 14.9477 1.5 15.5 1.5H20Z"/>
        <path d="M20 22.5C21.3807 22.5 22.5 21.3807 22.5 20V15.5C22.5 14.9477 22.0523 14.5 21.5 14.5H20.5C19.9477 14.5 19.5 14.9477 19.5 15.5V19.5H15.5C14.9477 19.5 14.5 19.9477 14.5 20.5V21.5C14.5 22.0523 14.9477 22.5 15.5 22.5H20Z"/>
        <path d="M1.5 20C1.5 21.3807 2.61929 22.5 4 22.5H8.5C9.05228 22.5 9.5 22.0523 9.5 21.5V20.5C9.5 19.9477 9.05228 19.5 8.5 19.5H4.5V15.5C4.5 14.9477 4.05228 14.5 3.5 14.5H2.5C1.94772 14.5 1.5 14.9477 1.5 15.5V20Z"/>
    </symbol>

    <symbol id="fullscreen_exit" viewBox="0 0 24 24">
        <path d="M7 9.5C8.38071 9.5 9.5 8.38071 9.5 7V2.5C9.5 1.94772 9.05228 1.5 8.5 1.5H7.5C6.94772 1.5 6.5 1.94772 6.5 2.5V6.5H2.5C1.94772 6.5 1.5 6.94772 1.5 7.5V8.5C1.5 9.05228 1.94772 9.5 2.5 9.5H7Z"/>
        <path d="M17 9.5C15.6193 9.5 14.5 8.38071 14.5 7V2.5C14.5 1.94772 14.9477 1.5 15.5 1.5H16.5C17.0523 1.5 17.5 1.94772 17.5 2.5V6.5H21.5C22.0523 6.5 22.5 6.94772 22.5 7.5V8.5C22.5 9.05228 22.0523 9.5 21.5 9.5H17Z"/>
        <path d="M17 14.5C15.6193 14.5 14.5 15.6193 14.5 17V21.5C14.5 22.0523 14.9477 22.5 15.5 22.5H16.5C17.0523 22.5 17.5 22.0523 17.5 21.5V17.5H21.5C22.0523 17.5 22.5 17.0523 22.5 16.5V15.5C22.5 14.9477 22.0523 14.5 21.5 14.5H17Z"/>
        <path d="M9.5 17C9.5 15.6193 8.38071 14.5 7 14.5H2.5C1.94772 14.5 1.5 14.9477 1.5 15.5V16.5C1.5 17.0523 1.94772 17.5 2.5 17.5H6.5V21.5C6.5 22.0523 6.94772 22.5 7.5 22.5H8.5C9.05228 22.5 9.5 22.0523 9.5 21.5V17Z"/>
    </symbol>

    <symbol id="arrow_left" viewBox="0 0 24 24">
        <path d="M14.2893 5.70708C13.8988 5.31655 13.2657 5.31655 12.8751 5.70708L7.98768 10.5993C7.20729 11.3805 7.2076 12.6463 7.98837 13.427L12.8787 18.3174C13.2693 18.7079 13.9024 18.7079 14.293 18.3174C14.6835 17.9269 14.6835 17.2937 14.293 16.9032L10.1073 12.7175C9.71678 12.327 9.71678 11.6939 10.1073 11.3033L14.2893 7.12129C14.6799 6.73077 14.6799 6.0976 14.2893 5.70708Z" />
    </symbol>

    <symbol id="arrow_right" viewBox="0 0 24 24">
        <path d="M9.71069 18.2929C10.1012 18.6834 10.7344 18.6834 11.1249 18.2929L16.0123 13.4006C16.7927 12.6195 16.7924 11.3537 16.0117 10.5729L11.1213 5.68254C10.7308 5.29202 10.0976 5.29202 9.70708 5.68254C9.31655 6.07307 9.31655 6.70623 9.70708 7.09676L13.8927 11.2824C14.2833 11.6729 14.2833 12.3061 13.8927 12.6966L9.71069 16.8787C9.32016 17.2692 9.32016 17.9023 9.71069 18.2929Z" />
    </symbol>

    <symbol id="placeholder" viewBox="0 0 200 200">
        <rect x="5%" y="5%" width="90%" height="90%" rx="20" ry="20" fill="none" stroke="black" stroke-width="20"/>
        <text x="50%" y="50%" font-size="70" text-anchor="middle" fill="black" font-family="Arial" dy=".3em" font-weight="bold">SVG</text>
    </symbol>

    <symbol id="seek_forward" viewBox="0 0 48 48">
        <path d="M24 4C12.97 4 4 12.97 4 24C4 35.03 12.97 44 24 44C35.03 44 44 35.03 44 24C44 23.83 43.998 23.66 43.994 23.49A1.5 1.5 0 0 0 40.994 23.56C40.998 23.71 41 23.85 41 24C41 33.41 33.41 41 24 41C14.59 41 7 33.41 7 24C7 14.59 14.59 7 24 7C29.38 7 34.16 9.5 37.27 13.38L35.96 13.15A1.5 1.5 0 0 0 35.44 16.11L40.37 16.98A1.5 1.5 0 0 0 42.11 15.76L42.97 10.84A1.5 1.5 0 0 0 41.44 9.06A1.5 1.5 0 0 0 40.02 10.32L39.77 11.72C36.11 7.03 30.4 4 24 4z"/>
        <text x="24" y="24" text-anchor="middle" font-weight="bold" font-size="18" dy=".35em">10s</text>
    </symbol>

    <symbol id="seek_backward" viewBox="0 0 48 48">
        <path transform="scale(-1, 1) translate(-48, 0)" d="M24 4C12.97 4 4 12.97 4 24C4 35.03 12.97 44 24 44C35.03 44 44 35.03 44 24C44 23.83 43.998 23.66 43.994 23.49A1.5 1.5 0 0 0 40.994 23.56C40.998 23.71 41 23.85 41 24C41 33.41 33.41 41 24 41C14.59 41 7 33.41 7 24C7 14.59 14.59 7 24 7C29.38 7 34.16 9.5 37.27 13.38L35.96 13.15A1.5 1.5 0 0 0 35.44 16.11L40.37 16.98A1.5 1.5 0 0 0 42.11 15.76L42.97 10.84A1.5 1.5 0 0 0 41.44 9.06A1.5 1.5 0 0 0 40.02 10.32L39.77 11.72C36.11 7.03 30.4 4 24 4z"/>
        <text x="24" y="24" text-anchor="middle" font-weight="bold" font-size="18" dy=".35em">10s</text>
    </symbol>

    <symbol id="pause_popup" viewBox="0 0 24 24" fill="none">
        <circle cx="12" cy="12" r="10" stroke-width="1.5"/>
        <path d="M8 9.5C8 9.03406 8 8.80109 8.07612 8.61732C8.17761 8.37229 8.37229 8.17761 8.61732 8.07612C8.80109 8 9.03406 8 9.5 8C9.96594 8 10.1989 8 10.3827 8.07612C10.6277 8.17761 10.8224 8.37229 10.9239 8.61732C11 8.80109 11 9.03406 11 9.5V14.5C11 14.9659 11 15.1989 10.9239 15.3827C10.8224 15.6277 10.6277 15.8224 10.3827 15.9239C10.1989 16 9.96594 16 9.5 16C9.03406 16 8.80109 16 8.61732 15.9239C8.37229 15.8224 8.17761 15.6277 8.07612 15.3827C8 15.1989 8 14.9659 8 14.5V9.5Z" stroke-width="1.5"/>
        <path d="M13 9.5C13 9.03406 13 8.80109 13.0761 8.61732C13.1776 8.37229 13.3723 8.17761 13.6173 8.07612C13.8011 8 14.0341 8 14.5 8C14.9659 8 15.1989 8 15.3827 8.07612C15.6277 8.17761 15.8224 8.37229 15.9239 8.61732C16 8.80109 16 9.03406 16 9.5V14.5C16 14.9659 16 15.1989 15.9239 15.3827C15.8224 15.6277 15.6277 15.8224 15.3827 15.9239C15.1989 16 14.9659 16 14.5 16C14.0341 16 13.8011 16 13.6173 15.9239C13.3723 15.8224 13.1776 15.6277 13.0761 15.3827C13 15.1989 13 14.9659 13 14.5V9.5Z" stroke-width="1.5"/>
    </symbol>

    <symbol id="play_popup" viewBox="0 0 24 24" fill="none">
        <circle cx="12" cy="12" r="10" stroke-width="1.5"/>
        <path d="M15.4137 10.941C16.1954 11.4026 16.1954 12.5974 15.4137 13.059L10.6935 15.8458C9.93371 16.2944 9 15.7105 9 14.7868L9 9.21316C9 8.28947 9.93371 7.70561 10.6935 8.15419L15.4137 10.941Z" stroke-width="1.5"/>
    </symbol>

    <symbol id="buffering" fill="none" viewBox="0 0 16 16">
        <g fill="#FFFFFF" fill-rule="evenodd" clip-rule="evenodd">
            <path d="M8 1.5a6.5 6.5 0 100 13 6.5 6.5 0 000-13zM0 8a8 8 0 1116 0A8 8 0 010 8z" opacity=".2"/>
            <path d="M7.25.75A.75.75 0 018 0a8 8 0 018 8 .75.75 0 01-1.5 0A6.5 6.5 0 008 1.5a.75.75 0 01-.75-.75z"/>
        </g>
    </symbol>

    <symbol id="speed" fill="white" viewBox="0 0 16 16">
        <path d="M8 4a.5.5 0 0 1 .5.5V6a.5.5 0 0 1-1 0V4.5A.5.5 0 0 1 8 4zM3.732 5.732a.5.5 0 0 1 .707 0l.915.914a.5.5 0 1 1-.708.708l-.914-.915a.5.5 0 0 1 0-.707zM2 10a.5.5 0 0 1 .5-.5h1.586a.5.5 0 0 1 0 1H2.5A.5.5 0 0 1 2 10zm9.5 0a.5.5 0 0 1 .5-.5h1.5a.5.5 0 0 1 0 1H12a.5.5 0 0 1-.5-.5zm.754-4.246a.389.389 0 0 0-.527-.02L7.547 9.31a.91.91 0 1 0 1.302 1.258l3.434-4.297a.389.389 0 0 0-.029-.518z"/>
        <path fill-rule="evenodd" d="M0 10a8 8 0 1 1 15.547 2.661c-.442 1.253-1.845 1.602-2.932 1.25C11.309 13.488 9.475 13 8 13c-1.474 0-3.31.488-4.615.911-1.087.352-2.49.003-2.932-1.25A7.988 7.988 0 0 1 0 10zm8-7a7 7 0 0 0-6.603 9.329c.203.575.923.876 1.68.63C4.397 12.533 6.358 12 8 12s3.604.532 4.923.96c.757.245 1.477-.056 1.68-.631A7 7 0 0 0 8 3z"/>
    </symbol>
</svg>

